<svg version="1.1" x="0px" y="0px" width="172" height="183" xmlns="http://www.w3.org/2000/svg" xmlns:xlink="http://www.w3.org/1999/xlink" xmlns:a="http://ns.adobe.com/AdobeSVGViewerExtensions/3.0/" xml:space="preserve"><g transform="translate(20.109375 20.484375) scale(1.4891121061168 1.4891121061168) rotate(0 44.247680664062 47.686279296875)"><path d="M9.951 13.08c4.489 5.318 9.363-.221 9.363-.221-5.618-5.593-9.363.221-9.363.221zm3.2 44.648c5.163 2.142 6.047-2.653 6.047-2.653-4.352-2.266-6.047 2.653-6.047 2.653zM1.289 51.134c.922 5.512 5.456 3.719 5.456 3.719-.388-4.891-5.456-3.719-5.456-3.719zm29.963-34.852c6.744 2.43 7.586-3.767 7.586-3.767-5.714-2.638-7.586 3.767-7.586 3.767zm16.992-9.195c-2.066 6.863 4.166 7.373 4.166 7.373 2.329-5.846-4.166-7.373-4.166-7.373zm25.303 12.869c-7.125.791-5.148 6.724-5.148 6.724 6.29-.15 5.148-6.724 5.148-6.724zm-.061-11.047c-7.854 1.093-5.477 9.158-5.477 9.158 8.805-2.015 5.477-9.158 5.477-9.158zM69.239 65.91c9.032-.149 7.254-7.827 7.254-7.827-7.91-.555-7.254 7.827-7.254 7.827zM42.148 12.119c4.876-1.105 3.043-5.063 3.043-5.063-4.349.596-3.043 5.063-3.043 5.063zm43.497 38.472c-4.91.946-3.206 4.962-3.206 4.962 4.366-.455 3.206-4.962 3.206-4.962zM61.19 77.396c4.366-.455 3.206-4.962 3.206-4.962-4.91.946-3.206 4.962-3.206 4.962zM31.613 75.2c-1.041 4.832 4.188 5.167 4.188 5.167.706-5.586-4.188-5.167-4.188-5.167zM14.91 43.618c-5.178 1.055-3.262 6.319-3.262 6.319 5.773-1.707 3.262-6.319 3.262-6.319zm46.671-.14c5.772-1.707 3.262-6.32 3.262-6.32-5.179 1.055-3.262 6.32-3.262 6.32zm-47.399-9.936c2.32-4.097-1.6-5.328-1.6-5.328-2.34 3.407 1.6 5.328 1.6 5.328zm11.6 12.277c-2.34 3.407 1.6 5.328 1.6 5.328 2.319-4.098-1.6-5.328-1.6-5.328zm.362 26.831c3.951 2.562 5.415-1.277 5.415-1.277-3.262-2.54-5.415 1.277-5.415 1.277zm28.111-60.521c.062 7.029 7.422 5.865 7.422 5.865-.762-7.971-7.422-5.865-7.422-5.865zm6.136-.733c4.497-6.624-1.976-9.251-1.976-9.251-4.436 5.452 1.976 9.251 1.976 9.251zm24.238 20.117c1.808-4.591-2.439-5.294-2.439-5.294-1.929 3.879 2.439 5.294 2.439 5.294zM42.833 1.127C45.027 6.198 50 3.103 50 3.103c-2.989-5.538-7.167-1.976-7.167-1.976z" fill="#c74d4d"></path><path d="M11.148 37.52c.922 5.512 5.456 3.719 5.456 3.719-.387-4.891-5.456-3.719-5.456-3.719zm55.747 36.617c5.397-1.602 3.045-5.914 3.045-5.914-4.842.991-3.045 5.914-3.045 5.914zM53.707 70.62c-4.843.991-3.045 5.914-3.045 5.914 5.397-1.603 3.045-5.914 3.045-5.914zm25-7.654c3.822-1.528 1.82-4.511 1.82-4.511-3.46 1.047-1.82 4.511-1.82 4.511zM53.823 78.713c3.185 1.71 4.479-1.897 4.479-1.897-3.781-1.627-4.479 1.897-4.479 1.897zm7.995-34.227c-4.323 3.039-.459 7.096-.459 7.096 4.607-3.874.459-7.096.459-7.096zM17.301 30.291c4.705-.162 3.708-4.146 3.708-4.146-4.128-.217-3.708 4.146-3.708 4.146zM1.666 41.962c6.2-3.16 1.916-9.167 1.916-9.167-6.726 4.196-1.916 9.167-1.916 9.167zM34.03 64.284c-4.317 4.295.862 8.15.862 8.15 4.477-5.3-.862-8.15-.862-8.15zM8.73 26.375c-3.94 3.007-.17 6.669-.17 6.669 4.176-3.801.17-6.669.17-6.669zm28.03-6.709c6.744 2.431 7.585-3.767 7.585-3.767-5.713-2.637-7.585 3.767-7.585 3.767zm22.758 15.297c6.744 2.431 7.585-3.767 7.585-3.767-5.713-2.637-7.585 3.767-7.585 3.767zM28.553 14.684c5.379-7.255-1.794-10.519-1.794-10.519-5.256 5.938 1.794 10.519 1.794 10.519zm26.339 57.129c8.354 3.433 9.757-4.321 9.757-4.321-7.046-3.638-9.757 4.321-9.757 4.321zm-28.306-3.59c5.615-.093 4.511-4.866 4.511-4.866-4.919-.345-4.511 4.866-4.511 4.866zM65.557 7.929c-4.199 2.59-1.223 5.699-1.223 5.699 3.869-1.947 1.223-5.699 1.223-5.699zM53.84 15.311c-4.852.897-3.199 4.873-3.199 4.873 4.311-.418 3.199-4.873 3.199-4.873zm26.195 4.917c-6.022 1.114-3.972 6.049-3.972 6.049 5.353-.518 3.972-6.049 3.972-6.049zm-7.368 20.063c1.826 7.044 8.927 4.026 8.927 4.026-2.766-7.813-8.927-4.026-8.927-4.026zM4.443 30.873c3.465-2.599.197-5.826.197-5.826-3.675 3.291-.197 5.826-.197 5.826zm21.886 43.458c-1.286 3.623 2.714 4.404 2.714 4.404 1.103-4.237-2.714-4.404-2.714-4.404zm-3.157-37.186c-2.746 4.109 1.992 6.346 1.992 6.346 2.713-4.934-1.992-6.346-1.992-6.346z" fill="#8ae98a"></path><path d="M21.845 70.055c2.862 1.855 3.923-.925 3.923-.925-2.364-1.84-3.923.925-3.923.925zm-9.63-52.681c-7.816-1.319-7.513 5.59-7.513 5.59 6.736 1.747 7.513-5.59 7.513-5.59zm3.139 45.372c-4.309 3.675.22 7.618.22 7.618 4.527-4.596-.22-7.618-.22-7.618zm71.445-20.63c4.365-4.533-1.072-8.4-1.072-8.4-4.507 5.574 1.072 8.4 1.072 8.4zm-62.058-6.473c3.585-4.835-1.195-7.01-1.195-7.01-3.503 3.956 1.195 7.01 1.195 7.01zm-3.595-21.094c-1.903 8.785 7.606 9.404 7.606 9.404 1.295-10.156-7.606-9.404-7.606-9.404zM38.904.437c-4.448 5.025 1.518 8.902 1.518 8.902 4.552-6.14-1.518-8.902-1.518-8.902zM20.687 11.621c2.978-4.017-.993-5.823-.993-5.823-2.91 3.286.993 5.823.993 5.823zm40.9 9.411c-4.343-.641-4.335 4.014-4.335 4.014 4.991.299 4.335-4.014 4.335-4.014zm4.958-3.314c-3.776 2.237-.839 5.847-.839 5.847 4.065-2.911.839-5.847.839-5.847zM1.247 43.271c-1.144 4.238 3.479 4.774 3.479 4.774.881-4.922-3.479-4.774-3.479-4.774zm16.371 26.333c-1.145 4.238 3.479 4.774 3.479 4.774.882-4.921-3.479-4.774-3.479-4.774zm57.424-55.708c-2.716 3.449 1.325 5.757 1.325 5.757 2.742-4.182-1.325-5.757-1.325-5.757zm7.519 22.528c-3.398.093-2.699 2.975-2.699 2.975 2.979.178 2.699-2.975 2.699-2.975zm-1.5-7.624c-3.398.093-2.699 2.975-2.699 2.975 2.98.177 2.699-2.975 2.699-2.975zM6.353 57.683c-.784 6.522 6.179 6.323 6.179 6.323.245-7.479-6.179-6.323-6.179-6.323zm69.515-7.309c.189-4.997-4.107-4.246-4.107-4.246-.546 4.356 4.107 4.246 4.107 4.246zm9.347-1.402c3.936-1.944 1.281-5.767 1.281-5.767-4.274 2.594-1.281 5.767-1.281 5.767zm-16.661 5.303c-.545 4.356 4.107 4.246 4.107 4.246.191-4.996-4.107-4.246-4.107-4.246zm11.641-5.811c3.131.265 2.785-2.454 2.785-2.454-2.718-.469-2.785 2.454-2.785 2.454zM52.797 68.946c5.396-1.602 3.045-5.913 3.045-5.913-4.843.991-3.045 5.913-3.045 5.913zm20.24 1.434c5.565-.85 3.824-5.442 3.824-5.442-4.931.32-3.824 5.442-3.824 5.442zm-12.133-8.124c5.391 4.144 7.941-1.212 7.941-1.212-4.4-4.033-7.941 1.212-7.941 1.212zm-42.351 2.155c5.391 4.144 7.94-1.211 7.94-1.211-4.399-4.034-7.94 1.211-7.94 1.211zM30.361 24.99c.046 5.284 5.58 4.409 5.58 4.409-.572-5.992-5.58-4.409-5.58-4.409zm22.344-.312c-1.969 4.904 3.482 6.2 3.482 6.2 1.751-5.759-3.482-6.2-3.482-6.2zM6.752 39.457c-1.969 4.905 3.482 6.2 3.482 6.2 1.75-5.759-3.482-6.2-3.482-6.2zm68.845-10.926c-3.826.779-2.409 4.669-2.409 4.669 4.264-1.261 2.409-4.669 2.409-4.669zM53.815 1.432c-4.09 3.02-.283 6.835-.283 6.835 4.343-3.829.283-6.835.283-6.835zM19.59 24.972c-2.668-5.396-6.783-2.134-6.783-2.134 1.923 4.922 6.783 2.134 6.783 2.134zm-1.1-7.718c-4.563-1.878-5.331 2.357-5.331 2.357 3.848 1.99 5.331-2.357 5.331-2.357zm14.458-6.476c4.312-.417 3.199-4.873 3.199-4.873-4.851.898-3.199 4.873-3.199 4.873zm13.496 8.441c3.87-1.946 1.223-5.699 1.223-5.699-4.199 2.589-1.223 5.699-1.223 5.699zM35.933 2.184c-4.461-2.108-5.444 2.083-5.444 2.083 3.741 2.182 5.444-2.083 5.444-2.083z" fill="#8ae98a"></path><path d="M44.524 40.821v4.035h4.034v-4.035h-4.034zm-5.686 4.034h4.034V40.82h-4.034v4.035zm5.686 5.729h4.034V46.55h-4.034v4.034zm-5.686 0h4.034V46.55h-4.034v4.034z" fill="#8ae98a"></path><path d="M44.251 86.204c-2.44-2.38-4.45-5.21-5.63-8.42-2.27 3.46-1.71 7.86-.37 11.56-.43-.62-.84-1.26-1.25-1.9-1.398 2.077-2.941 4.178-4.694 6.047-9.438.618-15.213 1.881-15.213 1.881h51.752A152.958 152.958 0 0 0 54.05 93.58c-3.529-2.099-6.862-4.484-9.799-7.376zm3.175-14.453c-1.834-2.821-4.857-4.558-7.915-5.762-1.85 4.531-1.127 9.76 1.267 13.941 3.287 5.793 8.595 10.23 14.438 13.296-3.948-3.955-6.034-9.267-7.697-14.5 1.107 1.349 1.581 3.062 2.44 4.554.026-3.944-.312-8.144-2.533-11.529zm30.769-18.237c2.148-1.84 4.604-3.311 7.313-4.152-3.311-.007-6.252 1.642-9.07 3.167-2.888-.26-5.699-1.026-8.36-2.162-.472-3.66-.178-7.73 2.244-10.692 2.634-3.256 6.896-4.529 10.904-4.994-4.057-.26-8.435.26-11.787 2.75.801-2.777-.622-5.411-2.216-7.573.93 2.053 1.717 4.303 1.245 6.588-.459 2.908-2.614 5.213-2.901 8.175-.567 2.203.314 4.734-1.066 6.704-1.279 1.908-3.407 2.976-5.432 3.913-.329-2.771-.432-5.562-.541-8.346l.021-2.066c.027-3.181.027-6.369.103-9.55.479-4.152 2.75-7.785 5.028-11.185-2.962 2.866-5.521 6.3-6.738 10.289-3.831-1.97-7.662-3.954-11.5-5.917 3.981-2.538 8.052-4.939 12.026-7.484-2.798 1.327-5.541 2.771-8.318 4.139-1.156-1.512-2.853-2.435-4.611-3.058 1.389.985 2.826 1.998 3.715 3.496-1.409.711-2.825 1.402-4.221 2.141a445.14 445.14 0 0 1-4.713-2.511c.889-1.279 2.175-2.175 3.406-3.092-1.566.602-3.071 1.437-4.2 2.716-2.805-1.348-5.507-2.908-8.339-4.228 4.043 2.688 8.223 5.165 12.245 7.88-3.954 1.984-7.936 3.94-11.903 5.917-1.204-3.893-3.626-7.313-6.588-10.077 2.224 3.338 4.419 6.909 4.878 10.98.075 2.606.116 5.24.123 7.846v3.763c-.096 2.866-.219 5.739-.54 8.599-2.456-1.313-4.659-3.441-5.377-6.191.369-3.353-.254-6.841-1.978-9.762-1.601-2.812-1.437-6.232-.205-9.146-1.54 1.957-2.504 4.467-1.848 6.958-3.365-2.477-7.729-2.99-11.786-2.688 3.912.472 8.078 1.642 10.746 4.734 2.559 2.976 2.908 7.169 2.401 10.911-2.675 1.061-5.473 2.011-8.38 2.073-2.866-1.348-5.691-3.174-8.989-3.044 2.716.766 5.083 2.319 7.238 4.104a37.36 37.36 0 0 0-3.995 4.07c1.908-1.313 3.742-2.928 6.067-3.441 3.031-.397 6.096-.588 9.133-.951.657.636 1.348 1.266 1.806 2.066-1.012 1.772-3.003 2.75-4.617 3.94 2.114-.438 4.111-1.361 5.712-2.818 2.572 2.374 5.61 4.166 8.805 5.548 4.057 1.847 8.476 3.099 11.985 5.952 1.464 1.149 2.538 2.689 3.619 4.187.909-1.676 1.635-3.688.834-5.562-.992-2.832-3.967-4.07-6.484-5.24-3.805-1.663-7.737-3.003-11.616-4.481 0-6.567-.007-13.142.007-19.709 4.166-2.524 8.298-5.104 12.437-7.655 4.036 2.531 8.024 5.144 12.074 7.648.014 6.424.014 12.847-.007 19.264-3.297 1.081-6.663 2.011-9.857 3.4-.555.281-1.204.493-1.561 1.033 1.711.958 3.441 1.936 4.803 3.373 1.752-1.32 3.633-2.47 5.678-3.263 3.106-1.286 6.678-1.861 9.099-4.392 1.601 1.519 3.681 2.292 5.781 2.846-1.731-1.136-3.448-2.313-4.844-3.858.726-.828 1.313-2.319 2.627-2.121 2.538.232 5.076.513 7.607.746 2.585.178 4.624 1.957 6.656 3.366-1.069-1.471-2.451-2.655-3.778-3.873z" fill="#c74d4d"></path></g>
</svg>